# xmcd CD database file
#
# Track frame offsets:
#	150
#	27750
#	49544
#	69036
#	89113
#	112786
#	134139
#	154974
#	174897
#	200010
#	225000
#	246669
#	268152
#	287695
#	312313
#
# Disc length: 4402 seconds
#
# Revision: 3
# Processed by: cddbd v1.5.1PL0 Copyright (c) Steve Scherf et al.
# Submitted via: CDex 1.51
#
DISCID=cf11300f
DTITLE=João Luiz Corrêa - Camperismo IV - CD I
DYEAR=2003
DGENRE=Country
TTITLE0=Ceu,Sol,Sul,Terra e Cor
TTITLE1=De Rodeio em Rodeio
TTITLE2=Largo Tudo pra Te Ver
TTITLE3=Tem Do
TTITLE4=Sul dos Mates
TTITLE5=Ta Chiando a Chaleira
TTITLE6=Chorando a Saudade
TTITLE7=Tirando Lasca
TTITLE8=Definicao do Grito
TTITLE9=Pelos
TTITLE10=Linha da Vida
TTITLE11=Embretados
TTITLE12=Vem na Vaneira
TTITLE13=O Bugio e as Macacas
TTITLE14=Barraca Armada
EXTD=YEAR: 2003
EXTT0=
EXTT1=
EXTT2=
EXTT3=
EXTT4=
EXTT5=
EXTT6=
EXTT7=
EXTT8=
EXTT9=
EXTT10=
EXTT11=
EXTT12=
EXTT13=
EXTT14=
PLAYORDER=
